<mxfile host="app.diagrams.net" modified="2021-08-27T13:36:44.127Z" agent="5.0 (Windows)" etag="9rIv1ox11LOfjWgCe-S7" version="15.0.2" type="github">
  <diagram id="wG4fSJozb9Byyunl3qMn" name="Page-1">
    <mxGraphModel dx="1278" dy="564" grid="1" gridSize="10" guides="1" tooltips="1" connect="1" arrows="1" fold="1" page="1" pageScale="1" pageWidth="850" pageHeight="1100" math="0" shadow="0">
      <root>
        <mxCell id="0" />
        <mxCell id="1" parent="0" />
        <mxCell id="uy91kdIQMNOUI4Fy5Ndv-1" value="" style="ellipse;html=1;shape=startState;fillColor=#000000;strokeColor=#ff0000;" vertex="1" parent="1">
          <mxGeometry x="370" y="40" width="30" height="30" as="geometry" />
        </mxCell>
        <mxCell id="uy91kdIQMNOUI4Fy5Ndv-2" value="" style="edgeStyle=orthogonalEdgeStyle;html=1;verticalAlign=bottom;endArrow=open;endSize=8;strokeColor=#ff0000;" edge="1" source="uy91kdIQMNOUI4Fy5Ndv-1" parent="1">
          <mxGeometry relative="1" as="geometry">
            <mxPoint x="385" y="140" as="targetPoint" />
          </mxGeometry>
        </mxCell>
        <mxCell id="uy91kdIQMNOUI4Fy5Ndv-7" style="edgeStyle=orthogonalEdgeStyle;rounded=0;orthogonalLoop=1;jettySize=auto;html=1;entryX=0.5;entryY=0;entryDx=0;entryDy=0;" edge="1" parent="1" source="uy91kdIQMNOUI4Fy5Ndv-3" target="uy91kdIQMNOUI4Fy5Ndv-4">
          <mxGeometry relative="1" as="geometry" />
        </mxCell>
        <mxCell id="uy91kdIQMNOUI4Fy5Ndv-3" value="&lt;div&gt;address&lt;/div&gt;&lt;div&gt;&lt;span style=&quot;white-space: pre&quot;&gt;detail	&lt;/span&gt;&lt;/div&gt;" style="rounded=1;whiteSpace=wrap;html=1;" vertex="1" parent="1">
          <mxGeometry x="325" y="140" width="120" height="60" as="geometry" />
        </mxCell>
        <mxCell id="uy91kdIQMNOUI4Fy5Ndv-8" style="edgeStyle=orthogonalEdgeStyle;rounded=0;orthogonalLoop=1;jettySize=auto;html=1;entryX=0.442;entryY=0;entryDx=0;entryDy=0;entryPerimeter=0;" edge="1" parent="1" source="uy91kdIQMNOUI4Fy5Ndv-4" target="uy91kdIQMNOUI4Fy5Ndv-6">
          <mxGeometry relative="1" as="geometry" />
        </mxCell>
        <mxCell id="uy91kdIQMNOUI4Fy5Ndv-19" style="edgeStyle=orthogonalEdgeStyle;rounded=0;orthogonalLoop=1;jettySize=auto;html=1;entryX=1;entryY=0.5;entryDx=0;entryDy=0;" edge="1" parent="1" source="uy91kdIQMNOUI4Fy5Ndv-4" target="uy91kdIQMNOUI4Fy5Ndv-3">
          <mxGeometry relative="1" as="geometry" />
        </mxCell>
        <mxCell id="uy91kdIQMNOUI4Fy5Ndv-4" value="" style="rhombus;whiteSpace=wrap;html=1;" vertex="1" parent="1">
          <mxGeometry x="345" y="280" width="80" height="80" as="geometry" />
        </mxCell>
        <mxCell id="uy91kdIQMNOUI4Fy5Ndv-6" value="available" style="rounded=1;whiteSpace=wrap;html=1;" vertex="1" parent="1">
          <mxGeometry x="325" y="470" width="120" height="60" as="geometry" />
        </mxCell>
        <mxCell id="uy91kdIQMNOUI4Fy5Ndv-20" value="not valid" style="text;html=1;strokeColor=none;fillColor=none;align=center;verticalAlign=middle;whiteSpace=wrap;rounded=0;" vertex="1" parent="1">
          <mxGeometry x="470" y="220" width="40" height="20" as="geometry" />
        </mxCell>
        <mxCell id="uy91kdIQMNOUI4Fy5Ndv-21" value="valid" style="text;html=1;strokeColor=none;fillColor=none;align=center;verticalAlign=middle;whiteSpace=wrap;rounded=0;" vertex="1" parent="1">
          <mxGeometry x="390" y="390" width="40" height="20" as="geometry" />
        </mxCell>
        <mxCell id="uy91kdIQMNOUI4Fy5Ndv-23" style="edgeStyle=orthogonalEdgeStyle;rounded=0;orthogonalLoop=1;jettySize=auto;html=1;entryX=0.5;entryY=1;entryDx=0;entryDy=0;" edge="1" parent="1" source="uy91kdIQMNOUI4Fy5Ndv-22" target="uy91kdIQMNOUI4Fy5Ndv-6">
          <mxGeometry relative="1" as="geometry" />
        </mxCell>
        <mxCell id="uy91kdIQMNOUI4Fy5Ndv-22" value="" style="ellipse;html=1;shape=endState;fillColor=#000000;strokeColor=#ff0000;" vertex="1" parent="1">
          <mxGeometry x="370" y="630" width="30" height="30" as="geometry" />
        </mxCell>
      </root>
    </mxGraphModel>
  </diagram>
</mxfile>
